<svg width="11" height="11" viewBox="0 0 11 11" fill="none" xmlns="http://www.w3.org/2000/svg">
<path d="M10.1111 10.999C9.88351 10.999 9.65633 10.9123 9.48247 10.7388L0.26102 1.51732C-0.0863353 1.17032 -0.0863353 0.607516 0.26102 0.260516C0.608375 -0.0868388 1.17083 -0.0868388 1.51783 0.260516L10.7396 9.48196C11.087 9.82896 11.087 10.3918 10.7396 10.7388C10.5661 10.9123 10.3386 10.999 10.1111 10.999Z" fill="white"/>
<path d="M0.889098 10.999C0.661557 10.999 0.434372 10.9123 0.260517 10.7388C-0.0868388 10.3918 -0.0868388 9.82896 0.260517 9.48196L9.48232 0.260516C9.82968 -0.0868388 10.3921 -0.0868388 10.7391 0.260516C11.0865 0.607516 11.0865 1.17032 10.7391 1.51732L1.51732 10.7388C1.34382 10.9123 1.11664 10.999 0.889098 10.999Z" fill="white"/>
</svg>
